<svg width="187" height="187" viewBox="0 0 187 187" fill="none" xmlns="http://www.w3.org/2000/svg">
<path d="M164.183 0H22.8018C10.2087 0 0 10.2051 0 22.7937V164.125C0 176.714 10.2087 186.919 22.8018 186.919H164.183C176.776 186.919 186.985 176.714 186.985 164.125V22.7937C186.985 10.2051 176.776 0 164.183 0Z" fill="#9720FF"/>
<path d="M81.6648 131.775L66.2265 107.754L52.2199 131.775H36.0613L58.5607 95.7887L35.7589 60.4158H52.2199L67.6671 84.3385L81.5759 60.4158H97.7345L75.3418 96.2954L98.1436 131.766H81.6826L81.6648 131.775Z" fill="#F8C8FF"/>
<path d="M98.5882 88.0188C100.874 83.5916 103.995 80.1868 107.944 77.7954C111.901 75.4129 116.294 74.2128 121.132 74.2128C124.814 74.2128 128.327 75.0129 131.661 76.6131C134.996 78.2132 137.664 80.3468 139.639 83.0049V56.1218H154.161V131.775H139.639V123.392C137.86 126.183 135.379 128.432 132.177 130.139C128.976 131.846 125.258 132.699 121.025 132.699C116.25 132.699 111.892 131.473 107.935 129.019C103.977 126.565 100.865 123.107 98.5793 118.645C96.2938 114.182 95.1555 109.052 95.1555 103.256C95.1555 97.4599 96.2938 92.4549 98.5793 88.0277L98.5882 88.0188ZM137.709 94.5173C136.348 92.0281 134.507 90.1168 132.186 88.7922C129.865 87.4587 127.375 86.8009 124.716 86.8009C122.057 86.8009 119.602 87.4498 117.353 88.7478C115.103 90.0457 113.28 91.9303 111.883 94.4195C110.487 96.9087 109.785 99.8601 109.785 103.265C109.785 106.67 110.487 109.657 111.883 112.208C113.28 114.769 115.12 116.724 117.406 118.084C119.691 119.445 122.128 120.129 124.716 120.129C127.304 120.129 129.865 119.462 132.186 118.138C134.507 116.804 136.339 114.902 137.709 112.413C139.069 109.924 139.754 106.945 139.754 103.469C139.754 99.9935 139.069 97.0154 137.709 94.5262V94.5173Z" fill="#F8C8FF"/>
</svg>
