<svg width="102" height="102" viewBox="0 0 102 102" fill="none" xmlns="http://www.w3.org/2000/svg">
<path d="M88.8473 0H12.3391C5.52441 0 0 5.52246 0 12.3347V88.816C0 95.6283 5.52441 101.151 12.3391 101.151H88.8473C95.662 101.151 101.186 95.6283 101.186 88.816V12.3347C101.186 5.52246 95.662 0 88.8473 0Z" fill="#9720FF"/>
<path d="M44.1927 71.3094L35.8383 58.3108L28.2587 71.3094H19.5145L31.6899 51.8356L19.3508 32.6936H28.2587L36.6179 45.6393L44.1445 32.6936H52.8887L40.771 52.1098L53.1101 71.3046H44.2023L44.1927 71.3094Z" fill="#F8C8FF"/>
<path d="M53.3508 47.6311C54.5876 45.2353 56.2767 43.3928 58.4135 42.0987C60.555 40.8094 62.9323 40.16 65.5503 40.16C67.5427 40.16 69.4436 40.5929 71.2482 41.4589C73.0529 42.3248 74.4966 43.4794 75.565 44.9178V30.3701H83.4237V71.3096H75.565V66.773C74.6025 68.2836 73.2598 69.5007 71.5274 70.4244C69.7949 71.348 67.7833 71.8099 65.4926 71.8099C62.9083 71.8099 60.5502 71.146 58.4086 69.8182C56.2671 68.4905 54.5828 66.6191 53.346 64.2041C52.1092 61.7891 51.4932 59.0133 51.4932 55.8767C51.4932 52.7401 52.1092 50.0316 53.346 47.6359L53.3508 47.6311ZM74.5207 51.1477C73.7844 49.8007 72.7882 48.7664 71.5322 48.0496C70.2761 47.328 68.9286 46.972 67.4897 46.972C66.0508 46.972 64.7226 47.3232 63.505 48.0255C62.2875 48.7279 61.3009 49.7478 60.5454 51.0948C59.7898 52.4418 59.4096 54.039 59.4096 55.8815C59.4096 57.724 59.7898 59.3404 60.5454 60.7211C61.3009 62.1066 62.2971 63.165 63.5339 63.901C64.7707 64.637 66.0893 65.0075 67.4897 65.0075C68.8901 65.0075 70.2761 64.6467 71.5322 63.9299C72.7882 63.2083 73.7796 62.1788 74.5207 60.8318C75.257 59.4847 75.6276 57.8731 75.6276 55.9921C75.6276 54.1111 75.257 52.4995 74.5207 51.1525V51.1477Z" fill="#F8C8FF"/>
</svg>
