<svg width="96" height="95" viewBox="0 0 96 95" fill="none" xmlns="http://www.w3.org/2000/svg">
<path d="M83.5518 0H11.6037C5.19514 0 0 5.1773 0 11.5638V83.265C0 89.6515 5.19514 94.8288 11.6037 94.8288H83.5518C89.9603 94.8288 95.1554 89.6515 95.1554 83.265V11.5638C95.1554 5.1773 89.9603 0 83.5518 0Z" fill="#C380FF"/>
<path d="M44.8353 14.4053H14.5544C12.5974 14.4053 11.0109 15.9853 11.0109 17.9344C11.0109 19.8835 12.5974 21.4635 14.5544 21.4635H44.8353C46.7923 21.4635 48.3788 19.8835 48.3788 17.9344C48.3788 15.9853 46.7923 14.4053 44.8353 14.4053Z" fill="#9720FF"/>
<path d="M82.9092 47.4143H14.5544C12.5974 47.4143 11.0109 48.9944 11.0109 50.9434C11.0109 52.8925 12.5974 54.4726 14.5544 54.4726H82.9092C84.8663 54.4726 86.4528 52.8925 86.4528 50.9434C86.4528 48.9944 84.8663 47.4143 82.9092 47.4143Z" fill="#9720FF"/>
<path d="M82.9092 60.8318H14.5544C12.5974 60.8318 11.0109 62.4118 11.0109 64.3609C11.0109 66.31 12.5974 67.8901 14.5544 67.8901H82.9092C84.8663 67.8901 86.4528 66.31 86.4528 64.3609C86.4528 62.4118 84.8663 60.8318 82.9092 60.8318Z" fill="#9720FF"/>
<path d="M49.6143 74.2539H14.5544C12.5974 74.2539 11.0109 75.834 11.0109 77.783C11.0109 79.7321 12.5974 81.3122 14.5544 81.3122H49.6143C51.5714 81.3122 53.1579 79.7321 53.1579 77.783C53.1579 75.834 51.5714 74.2539 49.6143 74.2539Z" fill="#9720FF"/>
<path d="M81.5424 41.0508V34.7457C81.5424 31.2008 78.6596 28.3279 75.1024 28.3279H65.214C61.6569 28.3279 58.774 31.2008 58.774 34.7457V41.0508H81.5424Z" fill="#9720FF"/>
<path d="M70.156 29.5321C74.3475 29.5321 77.7454 26.1458 77.7454 21.9687C77.7454 17.7915 74.3475 14.4053 70.156 14.4053C65.9644 14.4053 62.5665 17.7915 62.5665 21.9687C62.5665 26.1458 65.9644 29.5321 70.156 29.5321Z" fill="#9720FF"/>
<path d="M15.9663 39.6346C18.7057 39.6346 20.9264 37.4215 20.9264 34.6916C20.9264 31.9616 18.7057 29.7485 15.9663 29.7485C13.2269 29.7485 11.0062 31.9616 11.0062 34.6916C11.0062 37.4215 13.2269 39.6346 15.9663 39.6346Z" fill="#F8C8FF"/>
<path d="M28.896 39.6346C31.6353 39.6346 33.856 37.4215 33.856 34.6916C33.856 31.9616 31.6353 29.7485 28.896 29.7485C26.1566 29.7485 23.9359 31.9616 23.9359 34.6916C23.9359 37.4215 26.1566 39.6346 28.896 39.6346Z" fill="#F8C8FF"/>
<path d="M41.8211 39.6346C44.5605 39.6346 46.7812 37.4215 46.7812 34.6916C46.7812 31.9616 44.5605 29.7485 41.8211 29.7485C39.0818 29.7485 36.8611 31.9616 36.8611 34.6916C36.8611 37.4215 39.0818 39.6346 41.8211 39.6346Z" fill="#F8C8FF"/>
</svg>
