<svg width="205" height="205" viewBox="0 0 205 205" fill="none" xmlns="http://www.w3.org/2000/svg">
<path d="M180.001 0H24.9986C11.1922 0 0 11.1538 0 24.9128V179.384C0 193.142 11.1922 204.296 24.9986 204.296H180.001C193.808 204.296 205 193.142 205 179.384V24.9128C205 11.1538 193.808 0 180.001 0Z" fill="#C380FF"/>
<path d="M96.5916 31.0342H31.3555C27.1393 31.0342 23.7213 34.4382 23.7213 38.6372C23.7213 42.8363 27.1393 46.2403 31.3555 46.2403H96.5916C100.808 46.2403 104.226 42.8363 104.226 38.6372C104.226 34.4382 100.808 31.0342 96.5916 31.0342Z" fill="#9720FF"/>
<path d="M178.617 102.148H31.3555C27.1393 102.148 23.7213 105.552 23.7213 109.751C23.7213 113.95 27.1393 117.354 31.3555 117.354H178.617C182.833 117.354 186.251 113.95 186.251 109.751C186.251 105.552 182.833 102.148 178.617 102.148Z" fill="#9720FF"/>
<path d="M178.617 131.054H31.3555C27.1393 131.054 23.7213 134.458 23.7213 138.657C23.7213 142.856 27.1393 146.26 31.3555 146.26H178.617C182.833 146.26 186.251 142.856 186.251 138.657C186.251 134.458 182.833 131.054 178.617 131.054Z" fill="#9720FF"/>
<path d="M106.887 159.97H31.3555C27.1393 159.97 23.7213 163.374 23.7213 167.574C23.7213 171.773 27.1393 175.177 31.3555 175.177H106.887C111.104 175.177 114.522 171.773 114.522 167.574C114.522 163.374 111.104 159.97 106.887 159.97Z" fill="#9720FF"/>
<path d="M175.672 88.4384V74.855C175.672 67.2179 169.462 61.0286 161.798 61.0286H140.495C132.832 61.0286 126.621 67.2179 126.621 74.855V88.4384H175.672Z" fill="#9720FF"/>
<path d="M151.142 63.6229C160.172 63.6229 167.492 56.3276 167.492 47.3285C167.492 38.3294 160.172 31.0342 151.142 31.0342C142.112 31.0342 134.791 38.3294 134.791 47.3285C134.791 56.3276 142.112 63.6229 151.142 63.6229Z" fill="#9720FF"/>
<path d="M34.3974 85.3876C40.299 85.3876 45.0832 80.6198 45.0832 74.7385C45.0832 68.8571 40.299 64.0894 34.3974 64.0894C28.4958 64.0894 23.7116 68.8571 23.7116 74.7385C23.7116 80.6198 28.4958 85.3876 34.3974 85.3876Z" fill="#F8C8FF"/>
<path d="M62.2527 85.3876C68.1543 85.3876 72.9385 80.6198 72.9385 74.7385C72.9385 68.8571 68.1543 64.0894 62.2527 64.0894C56.351 64.0894 51.5668 68.8571 51.5668 74.7385C51.5668 80.6198 56.351 85.3876 62.2527 85.3876Z" fill="#F8C8FF"/>
<path d="M90.0982 85.3876C95.9998 85.3876 100.784 80.6198 100.784 74.7385C100.784 68.8571 95.9998 64.0894 90.0982 64.0894C84.1966 64.0894 79.4124 68.8571 79.4124 74.7385C79.4124 80.6198 84.1966 85.3876 90.0982 85.3876Z" fill="#F8C8FF"/>
</svg>
