<svg width="78" height="46" viewBox="0 0 78 46" fill="none" xmlns="http://www.w3.org/2000/svg">
<path d="M41.881 23.8196C41.4539 22.7676 41.0364 21.6836 40.6189 20.6028C38.9139 16.1833 37.1482 11.6099 34.8058 9.25587C32.6258 7.06217 29.9136 5.45859 26.9561 4.61511C26.4366 4.46758 25.9458 4.17252 25.5346 3.7588L23.0041 1.21231C22.2265 0.429759 21.1939 0 20.0975 0C19.0012 0 17.9654 0.429759 17.1909 1.21231L1.2047 17.2994C0.427064 18.082 0 19.1211 0 20.2244C0 21.3276 0.427064 22.37 1.2047 23.1493L3.73203 25.6958C4.14316 26.1095 4.43637 26.6034 4.58298 27.1262C5.42117 30.0992 7.01469 32.8317 9.19463 35.0254C11.4033 37.248 15.5018 38.7842 19.8394 40.4103C21.1779 40.9106 22.5611 41.4301 23.8646 41.9657C28.9384 44.044 33.5947 45.7662 37.3936 45.7662C39.7042 45.7662 41.693 45.128 43.2674 43.5469C47.589 39.1979 44.9469 31.4174 41.8746 23.8196H41.881Z" fill="#C380FF"/>
<path d="M74.3347 9.82029C69.4745 9.32639 64.5664 9.63107 59.7922 10.6734C55.4005 11.6323 50.3203 13.2455 48.9977 18.1429C47.6751 23.0402 51.8118 26.2955 56.0092 27.3282C58.1573 27.8574 60.3531 28.1781 62.5171 28.6335C63.674 28.8773 64.8246 29.1402 65.9623 29.4674C66.0994 29.5059 67.0842 29.8747 67.1097 29.849C67.1638 29.8009 66.7814 29.0344 66.7718 29.0633L67.6323 27.5784C66.332 29.2397 62.8836 28.0241 61.2551 27.4469C58.6799 26.536 56.2259 25.4456 53.5297 24.9164C48.0224 23.8324 42.1997 24.1306 36.8837 26.0004C31.9661 27.7291 25.0215 31.0838 25.3785 37.3217C25.7673 44.1915 34.8918 45.2947 40.1664 45.0734C44.4593 44.8938 44.4816 38.1588 40.1664 38.3384C38.4677 38.4089 36.7913 38.3384 35.1245 37.9696C34.5412 37.8381 32.2051 37.4949 32.0203 36.8663C31.8641 36.3371 33.1294 35.3878 33.4544 35.144C34.7229 34.2076 36.2335 33.4475 37.69 32.8573C43.7072 30.4231 50.2789 30.4744 56.3247 32.7355C59.585 33.9542 62.8295 35.3621 66.3926 35.0061C70.2266 34.6213 74.6184 32.1101 73.3244 27.5687C72.2408 23.7682 67.9096 22.9119 64.5887 22.1999C62.7562 21.8087 60.9109 21.4912 59.0783 21.1127C58.1063 20.9139 56.4586 20.7054 55.7542 20.1377C55.4706 19.91 55.4483 19.9293 55.4483 19.9004C55.4483 19.3776 56.2355 18.9062 56.6083 18.6945C58.0839 17.8606 59.942 17.5239 61.577 17.1679C65.7743 16.2507 70.0736 16.1224 74.3379 16.5553C76.1386 16.7381 77.6843 14.878 77.6843 13.1878C77.6843 11.2154 76.1449 10.0031 74.3379 9.82029H74.3347Z" fill="#9720FF"/>
<mask id="mask0_26_438" style="mask-type:luminance" maskUnits="userSpaceOnUse" x="0" y="0" width="46" height="46">
<path d="M41.881 23.8196C41.4539 22.7676 41.0364 21.6836 40.6189 20.6028C38.9139 16.1833 37.1482 11.6099 34.8058 9.25587C32.6258 7.06217 29.9136 5.45859 26.9561 4.61511C26.4366 4.46758 25.9458 4.17252 25.5346 3.7588L23.0041 1.21231C22.2265 0.429759 21.1939 0 20.0975 0C19.0012 0 17.9654 0.429759 17.1909 1.21231L1.2047 17.2994C0.427064 18.082 0 19.1211 0 20.2244C0 21.3276 0.427064 22.37 1.2047 23.1493L3.73203 25.6958C4.14316 26.1095 4.43637 26.6034 4.58298 27.1262C5.42117 30.0992 7.01469 32.8317 9.19463 35.0254C11.4033 37.248 15.5018 38.7842 19.8394 40.4103C21.1779 40.9106 22.5611 41.4301 23.8646 41.9657C28.9384 44.044 33.5947 45.7662 37.3936 45.7662C39.7042 45.7662 41.693 45.128 43.2674 43.5469C47.589 39.1979 44.9469 31.4174 41.8746 23.8196H41.881Z" fill="white"/>
</mask>
<g mask="url(#mask0_26_438)">
<path d="M43.9717 19.8267L45.7214 22.0878C46.9707 23.7042 49.3068 23.9447 50.8557 22.6137L53.0229 20.7536C55.1678 18.9127 58.4887 20.1827 58.8743 22.9954L59.2631 25.8337C59.5436 27.8607 61.4463 29.2462 63.4477 28.8741L66.246 28.3546C69.0187 27.8382 71.2624 30.6092 70.2011 33.2391L69.1302 35.8946C68.3654 37.79 69.3247 39.9484 71.2433 40.6316L73.9268 41.5905C76.5848 42.5398 77.1521 46.0677 74.9243 47.8124L72.6774 49.5731C71.0712 50.8304 70.8321 53.1812 72.1548 54.7399L74.0032 56.9208C75.8326 59.0792 74.5705 62.421 71.7755 62.8091L68.955 63.2004C66.9407 63.4826 65.5639 65.3973 65.9336 67.4114L66.4499 70.2273C66.9631 73.0175 64.2094 75.2753 61.5961 74.2074L58.9572 73.1298C57.0736 72.36 54.9288 73.3254 54.2499 75.2561L53.297 77.9565C52.3536 80.6313 48.8479 81.2022 47.1141 78.9604L45.3644 76.6993C44.1151 75.0829 41.779 74.8424 40.2301 76.1733L38.0629 78.0335C35.918 79.8744 32.5971 78.6044 32.2115 75.7917L31.8227 72.9534C31.5422 70.9264 29.6395 69.5409 27.6381 69.913L24.8398 70.4325C22.0671 70.9489 19.8234 68.1779 20.8847 65.548L21.9556 62.8925C22.7205 60.9971 21.7612 58.8386 19.8425 58.1555L17.1591 57.1966C14.5011 56.2472 13.9338 52.7194 16.1615 50.9747L18.4084 49.2139C20.0146 47.9567 20.2537 45.6059 18.9311 44.0472L17.0826 41.8663C15.2532 39.7079 16.5153 36.366 19.3103 35.978L22.1308 35.5867C24.1451 35.3045 25.5219 33.3898 25.1522 31.3757L24.6359 28.5598C24.1228 25.7696 26.8764 23.5117 29.4897 24.5797L32.1286 25.6573C34.0122 26.4271 36.157 25.4617 36.8359 23.531L37.7888 20.8306C38.7322 18.1558 42.2379 17.5849 43.9717 19.8267Z" fill="#F8C8FF"/>
</g>
</svg>
