<svg width="187" height="187" viewBox="0 0 187 187" fill="none" xmlns="http://www.w3.org/2000/svg">
<path d="M164.183 0H22.8018C10.2087 0 0 10.2051 0 22.7937V164.125C0 176.714 10.2087 186.919 22.8018 186.919H164.183C176.776 186.919 186.985 176.714 186.985 164.125V22.7937C186.985 10.2051 176.776 0 164.183 0Z" fill="#C380FF"/>
<path d="M96.9697 112.182L96.8719 135.927C96.8363 144.47 92.043 152.115 85.5066 156.418C77.8408 161.458 68.6098 162.054 60.5616 158.294C52.5134 154.533 46.8041 146.39 46.1015 137.545C45.3723 128.388 49.5698 119.765 57.3601 114.484C50.1567 109.613 46.0659 101.896 46.0215 93.5663C45.977 85.1475 50.0856 77.3155 57.3601 72.3816C47.9246 65.9987 43.8694 54.7263 47.1153 44.0051C50.1567 33.9506 59.5745 26.2341 70.6285 26.2253L114.578 26.1897C125.676 26.1897 135.183 33.6039 138.376 43.7206C141.782 54.5129 137.709 65.9542 128.229 72.3816C137.629 78.7557 141.684 90.0459 138.474 100.723C135.405 110.937 126.005 118.316 114.978 118.609C108.291 118.787 102.43 116.742 96.9519 112.182H96.9697ZM88.6725 68.2389V34.4129L70.9576 34.4484C61.4954 34.4662 54.1764 42.3693 54.2653 51.4992C54.3543 60.7359 61.86 68.2923 71.3222 68.2745L88.6636 68.2478L88.6725 68.2389ZM114.854 68.2034C124.494 68.1767 131.608 59.8824 131.306 50.7792C131.003 41.7026 123.595 34.404 114.258 34.404H96.9252V68.2389L114.854 68.1945V68.2034ZM88.6725 110.35V76.5154L70.9576 76.5421C61.4954 76.5599 54.1675 84.4719 54.2742 93.6107C54.3809 102.75 61.86 110.377 71.3311 110.368L88.6725 110.35ZM131.217 93.4418C131.217 84.0096 123.569 76.3554 114.124 76.3554C104.68 76.3554 97.0319 84.0007 97.0319 93.4418C97.0319 102.883 104.68 110.528 114.124 110.528C123.569 110.528 131.217 102.883 131.217 93.4418ZM88.6903 134.824L88.6547 118.645L71.34 118.618C63.0961 118.6 56.2218 124.361 54.6299 132.104C53.0381 139.847 57.1467 147.937 64.7146 151.119C70.2639 153.458 76.4001 152.72 81.3535 149.279C85.9157 146.114 88.7081 140.781 88.6903 134.833V134.824Z" fill="#F8C8FF"/>
</svg>
