<svg width="102" height="102" viewBox="0 0 102 102" fill="none" xmlns="http://www.w3.org/2000/svg">
<path d="M88.8473 0H12.3391C5.52441 0 0 5.52246 0 12.3347V88.816C0 95.6283 5.52441 101.151 12.3391 101.151H88.8473C95.662 101.151 101.186 95.6283 101.186 88.816V12.3347C101.186 5.52246 95.662 0 88.8473 0Z" fill="#C380FF"/>
<path d="M52.4749 60.7067L52.4219 73.5562C52.4027 78.1793 49.8088 82.3166 46.2716 84.645C42.1233 87.3727 37.128 87.695 32.7727 85.66C28.4175 83.6251 25.3279 79.2184 24.9477 74.4317C24.5531 69.4767 26.8246 64.8103 31.0403 61.9527C27.1422 59.3164 24.9285 55.1407 24.9044 50.633C24.8803 46.0772 27.1037 41.839 31.0403 39.169C25.9343 35.7149 23.7398 29.6149 25.4963 23.8131C27.1422 18.3721 32.2386 14.1964 38.2204 14.1916L62.0035 14.1724C68.0094 14.1724 73.1539 18.1845 74.8816 23.6592C76.7248 29.4994 74.5207 35.6908 69.3906 39.169C74.4774 42.6183 76.6718 48.7279 74.9345 54.5056C73.2743 60.0332 68.1875 64.0261 62.2201 64.1849C58.6011 64.2811 55.4297 63.1746 52.4653 60.7067H52.4749ZM47.9849 36.9272V18.6223L38.3985 18.6415C33.278 18.6512 29.3174 22.9279 29.3655 27.8686C29.4137 32.8669 33.4754 36.956 38.5958 36.9464L47.9801 36.932L47.9849 36.9272ZM62.1527 36.9079C67.3694 36.8935 71.2193 32.4051 71.0557 27.4789C70.8921 22.5671 66.8833 18.6175 61.8303 18.6175H52.4508V36.9272L62.1527 36.9031V36.9079ZM47.9849 59.7157V41.406L38.3985 41.4204C33.278 41.43 29.3126 45.7116 29.3703 50.657C29.4281 55.6025 33.4754 59.7301 38.6006 59.7253L47.9849 59.7157ZM71.0076 50.5656C71.0076 45.4614 66.8689 41.3194 61.7581 41.3194C56.6473 41.3194 52.5086 45.4566 52.5086 50.5656C52.5086 55.6747 56.6473 59.8119 61.7581 59.8119C66.8689 59.8119 71.0076 55.6747 71.0076 50.5656ZM47.9945 72.9597L47.9752 64.2041L38.6054 64.1897C34.1443 64.18 30.4243 67.2974 29.5628 71.4876C28.7014 75.6777 30.9248 80.0555 35.0201 81.7777C38.0231 83.043 41.3437 82.6437 44.0242 80.7819C46.493 79.0693 48.0041 76.1829 47.9945 72.9645V72.9597Z" fill="#F8C8FF"/>
</svg>
