<svg width="205" height="200" viewBox="0 0 205 200" fill="none" xmlns="http://www.w3.org/2000/svg">
<path d="M37.5947 93.351C36.7198 114.413 42.2999 134.104 63.0358 142.65C69.8335 145.451 76.6667 146.68 83.9018 147.755C79.8587 151.585 78.511 156.218 77.4943 161.194C67.2681 166.383 55.4933 164.811 48.7784 154.528C46.4021 150.888 43.9313 147.555 40.3256 145.108C35.3839 141.763 28.3261 141.728 27.3685 143.843C26.4109 145.959 31.9319 148.985 33.3623 150.19C38.1385 154.232 40.8812 159.906 43.4111 165.544C48.8966 177.824 65.0929 177.954 76.9977 175.708L77.1751 194.489C77.1869 196.061 76.4303 197.917 75.4254 198.661C74.4205 199.406 71.9615 200.21 70.8148 199.832C27.6404 185.849 -0.673499 145.333 0.0121829 100.868C0.709687 56.1082 30.525 17.057 72.9073 4.36305C117.264 -8.93373 164.871 8.85441 189.45 48.2838C206.793 76.0947 210.126 110.477 196.933 142.26C186.187 168.144 163.335 190.577 134.678 199.713C131.888 200.6 128.199 198.591 128.187 195.423L128.117 164.043C128.105 157.778 125.752 152.164 121.543 147.673C129.311 146.68 136.262 145.262 143.06 142.366C163.524 133.655 168.749 113.869 167.933 93.3746C167.567 84.3447 163.027 76.603 158.026 69.5586C159.729 60.8714 160.852 51.2032 156.336 42.3623C147.635 41.0031 135.694 48.0001 128.341 52.8579C111.436 48.2838 93.9743 48.3074 77.1041 52.8579C69.5971 47.9174 58.3661 41.3813 49.2158 42.2677C44.617 50.955 45.7519 60.7532 47.4306 69.5586C42.5718 76.5321 37.9375 84.1674 37.5592 93.3274L37.5947 93.351Z" fill="#9720FF"/>
</svg>
