<svg width="96" height="94" viewBox="0 0 96 94" fill="none" xmlns="http://www.w3.org/2000/svg">
<path d="M17.5334 43.537C17.1254 53.36 19.7278 62.5435 29.3986 66.5289C32.569 67.8353 35.7558 68.4086 39.1301 68.9102C37.2445 70.6962 36.6159 72.857 36.1418 75.1777C31.3725 77.5976 25.881 76.8645 22.7493 72.0688C21.641 70.371 20.4887 68.8165 18.807 67.6754C16.5023 66.1155 13.2107 66.0989 12.7641 67.0856C12.3175 68.0723 14.8924 69.4835 15.5595 70.0457C17.787 71.9309 19.0662 74.5769 20.2461 77.2062C22.8044 82.9335 30.358 82.9942 35.9102 81.9468L35.9929 90.7059C35.9984 91.439 35.6455 92.3045 35.1769 92.6517C34.7082 92.999 33.5614 93.3738 33.0266 93.1974C12.891 86.6764 -0.314107 67.7802 0.00568187 47.0429C0.330984 26.1677 14.2363 7.95506 34.0025 2.03484C54.6895 -4.16651 76.8927 4.12952 88.3555 22.5186C96.4439 35.4891 97.9988 51.5244 91.8456 66.347C86.8337 78.4189 76.176 88.8813 62.811 93.1423C61.5098 93.5557 59.7896 92.6187 59.7841 91.1414L59.751 76.5062C59.7455 73.5846 58.6483 70.9663 56.6854 68.8716C60.3078 68.4086 63.5498 67.7471 66.7202 66.3966C76.2642 62.334 78.7012 53.1064 78.3208 43.5481C78.1498 39.3367 76.0326 35.7261 73.7004 32.4408C74.4943 28.3892 75.0181 23.8801 72.9119 19.7569C68.8539 19.123 63.2852 22.3863 59.8557 24.6519C51.9713 22.5186 43.8277 22.5296 35.9598 24.6519C32.4587 22.3477 27.2208 19.2994 22.9533 19.7128C20.8085 23.7644 21.3378 28.3341 22.1207 32.4408C19.8546 35.693 17.6933 39.254 17.5169 43.526L17.5334 43.537Z" fill="#9720FF"/>
</svg>
