<svg width="92" height="92" viewBox="0 0 92 92" fill="none" xmlns="http://www.w3.org/2000/svg">
<rect x="91" y="1" width="90" height="90" rx="45" transform="rotate(90 91 1)" fill="#9720FF"/>
<rect x="91" y="1" width="90" height="90" rx="45" transform="rotate(90 91 1)" stroke="#C380FF" stroke-width="2"/>
<path d="M62.6667 48.0833C63.8173 48.0833 64.75 47.1506 64.75 46C64.75 44.8494 63.8173 43.9167 62.6667 43.9167L33.3213 43.9167L43.3065 33.9315C44.1201 33.1179 44.1201 31.7988 43.3065 30.9852C42.4929 30.1716 41.1738 30.1716 40.3602 30.9852L28.2917 43.0537C26.6645 44.6809 26.6645 47.3191 28.2917 48.9463L40.3602 61.0148C41.1738 61.8284 42.4929 61.8284 43.3065 61.0148C44.1201 60.2012 44.1201 58.8821 43.3065 58.0685L33.3213 48.0833L62.6667 48.0833Z" fill="#E9EBF8"/>
</svg>
