<svg width="94" height="94" viewBox="0 0 94 94" fill="none" xmlns="http://www.w3.org/2000/svg">
<path d="M82.375 0H11.4402C5.12197 0 0 5.1006 0 11.3925V82.0314C0 88.3233 5.12197 93.4239 11.4402 93.4239H82.375C88.6933 93.4239 93.8152 88.3233 93.8152 82.0314V11.3925C93.8152 5.1006 88.6933 0 82.375 0Z" fill="#F8C8FF"/>
<path d="M72.434 70.2434L72.3492 35.2483L46.8764 53.3368L21.3724 35.2616L21.3099 70.2389L17.5754 70.2478C16.2993 69.488 14.2066 68.3594 14.2022 66.4488L14.1353 27.7303C14.2959 25.2732 16.3751 23.0471 18.9675 23.2248L46.8095 43.0373L74.7586 23.4248C76.9182 22.0829 80.0058 25.8508 79.6578 27.9924L79.6712 65.5335C79.6712 67.8884 77.8775 69.9368 75.5618 70.1812C74.6292 70.2789 73.719 70.2611 72.4429 70.2389L72.434 70.2434Z" fill="#9720FF"/>
</svg>
