<svg width="202" height="202" viewBox="0 0 202 202" fill="none" xmlns="http://www.w3.org/2000/svg">
<path d="M177.367 0H24.6327C11.0285 0 0 10.9825 0 24.53V176.627C0 190.175 11.0285 201.157 24.6327 201.157H177.367C190.972 201.157 202 190.175 202 176.627V24.53C202 10.9825 190.972 0 177.367 0Z" fill="#F8C8FF"/>
<path d="M155.963 151.246L155.78 75.8957L100.933 114.843L46.0183 75.9244L45.8838 151.236L37.8426 151.256C35.0949 149.62 30.5892 147.19 30.5796 143.076L30.4355 59.7081C30.7813 54.4176 35.2582 49.6244 40.84 50.0071L100.789 92.6667L160.968 50.4377C165.618 47.5484 172.266 55.6613 171.516 60.2726L171.545 141.105C171.545 146.175 167.683 150.586 162.697 151.112C160.689 151.323 158.729 151.284 155.982 151.236L155.963 151.246Z" fill="#9720FF"/>
</svg>
