<svg width="108" height="104" viewBox="0 0 108 104" fill="none" xmlns="http://www.w3.org/2000/svg">
<path d="M64.2485 27.6912L67.7319 38.5105C68.4753 40.8175 70.6025 42.3776 73.005 42.3776H84.2742C89.6437 42.3776 91.8776 49.316 87.5338 52.502L78.4159 59.1868C76.4711 60.6114 75.6588 63.1373 76.4023 65.4443L79.8856 76.2636C81.5447 81.4197 75.7001 85.7071 71.3529 82.5211L62.235 75.8363C60.2902 74.4118 57.6605 74.4118 55.7158 75.8363L46.5979 82.5211C42.2541 85.7071 36.4061 81.4197 38.0652 76.2636L41.5485 65.4443C42.292 63.1373 41.4762 60.6114 39.5349 59.1868L30.417 52.502C26.0732 49.316 28.3036 42.3776 33.6766 42.3776H44.9457C47.3483 42.3776 49.4754 40.8175 50.2189 38.5105L53.7022 27.6912C55.3613 22.5351 62.5895 22.5351 64.2485 27.6912Z" fill="#9720FF"/>
<path d="M82.4189 21.8889L83.0935 25.4467C83.2415 26.2319 83.8783 26.833 84.6631 26.9337L88.2221 27.3854C89.981 27.6078 90.4319 29.9739 88.8761 30.839L85.7336 32.5866C85.0383 32.9723 84.67 33.7679 84.818 34.5532L85.4926 38.111C85.8265 39.869 83.7338 41.033 82.4396 39.8065L79.8236 37.3292C79.2454 36.7803 78.3814 36.6726 77.6861 37.0582L74.5436 38.8059C72.9878 39.671 71.2496 38.0206 72.0034 36.4016L73.5282 33.1217C73.8655 32.3955 73.7003 31.5339 73.122 30.9884L70.5061 28.5111C69.2119 27.2847 70.2273 25.1062 71.9862 25.3286L75.5452 25.7802C76.3334 25.881 77.0941 25.4571 77.4314 24.731L78.9562 21.4511C79.71 19.8285 82.0781 20.1308 82.412 21.8889H82.4189Z" fill="#F8C8FF"/>
<path d="M30.6649 57.7693L31.3395 61.3271C31.4875 62.1123 32.1243 62.7134 32.9091 62.8141L36.4681 63.2658C38.227 63.4882 38.6779 65.8543 37.1221 66.7194L33.9795 68.467C33.2842 68.8527 32.916 69.6483 33.064 70.4336L33.7386 73.9914C34.0725 75.7494 31.9797 76.9134 30.6855 75.6869L28.0696 73.2096C27.4913 72.6607 26.6274 72.553 25.9321 72.9386L22.7896 74.6863C21.2338 75.5514 19.4955 73.901 20.2493 72.282L21.7742 69.0021C22.1115 68.2759 21.9463 67.4143 21.368 66.8688L18.7521 64.3915C17.4579 63.1651 18.4733 60.9866 20.2321 61.209L23.7912 61.6606C24.5794 61.7614 25.3401 61.3375 25.6774 60.6114L27.2022 57.3315C27.956 55.7089 30.3241 56.0112 30.658 57.7693H30.6649Z" fill="#F8C8FF"/>
</svg>
